<svg class="main-svg" xmlns="http://www.w3.org/2000/svg" xmlns:xlink="http://www.w3.org/1999/xlink" width="2400" height="1600" style="" viewBox="0 0 1200 800"><rect x="0" y="0" width="1200" height="800" style="fill: rgb(255, 255, 255); fill-opacity: 1;"/><defs id="defs-587459"><g class="clips"><clipPath id="clip587459xyplot" class="plotclip"><rect width="1040" height="572"/></clipPath><clipPath class="axesclip" id="clip587459x"><rect x="80" y="0" width="1040" height="800"/></clipPath><clipPath class="axesclip" id="clip587459y"><rect x="0" y="148" width="1200" height="572"/></clipPath><clipPath class="axesclip" id="clip587459xy"><rect x="80" y="148" width="1040" height="572"/></clipPath></g><g class="gradients"/><g class="patterns"/></defs><g class="bglayer"/><g class="layer-below"><g class="imagelayer"/><g class="shapelayer"/></g><g class="cartesianlayer"><g class="subplot xy"><g class="layer-subplot"><g class="shapelayer"/><g class="imagelayer"/></g><g class="minor-gridlayer"><g class="x"/><g class="y"/></g><g class="gridlayer"><g class="x"/><g class="y"/></g><g class="zerolinelayer"/><g class="layer-between"><g class="shapelayer"/><g class="imagelayer"/></g><path class="xlines-below"/><path class="ylines-below"/><g class="overlines-below"/><g class="xaxislayer-below"/><g class="yaxislayer-below"/><g class="overaxes-below"/><g class="overplot"><g class="xy" transform="translate(80,148)" clip-path="url(#clip587459xyplot)"><g class="scatterlayer mlayer"><g class="trace scatter trace8513c4" style="stroke-miterlimit: 2; opacity: 1;"><g class="fills"/><g class="errorbars"/><g class="lines"/><g class="points"><path class="point" transform="translate(253.33,71.5)" d="M30,0A30,30 0 1,1 0,-30A30,30 0 0,1 30,0Z" style="opacity: 0.8; stroke-width: 2px; fill: rgb(31, 184, 205); fill-opacity: 1; stroke: rgb(255, 255, 255); stroke-opacity: 1;"/><path class="point" transform="translate(386.67,71.5)" d="M17.5,0A17.5,17.5 0 1,1 0,-17.5A17.5,17.5 0 0,1 17.5,0Z" style="opacity: 0.8; stroke-width: 2px; fill: rgb(31, 184, 205); fill-opacity: 1; stroke: rgb(255, 255, 255); stroke-opacity: 1;"/><path class="point" transform="translate(520,71.5)" d="M17.5,0A17.5,17.5 0 1,1 0,-17.5A17.5,17.5 0 0,1 17.5,0Z" style="opacity: 0.8; stroke-width: 2px; fill: rgb(31, 184, 205); fill-opacity: 1; stroke: rgb(255, 255, 255); stroke-opacity: 1;"/><path class="point" transform="translate(653.33,71.5)" d="M17.5,0A17.5,17.5 0 1,1 0,-17.5A17.5,17.5 0 0,1 17.5,0Z" style="opacity: 0.8; stroke-width: 2px; fill: rgb(31, 184, 205); fill-opacity: 1; stroke: rgb(255, 255, 255); stroke-opacity: 1;"/><path class="point" transform="translate(786.67,71.5)" d="M17.5,0A17.5,17.5 0 1,1 0,-17.5A17.5,17.5 0 0,1 17.5,0Z" style="opacity: 0.8; stroke-width: 2px; fill: rgb(31, 184, 205); fill-opacity: 1; stroke: rgb(255, 255, 255); stroke-opacity: 1;"/><path class="point" transform="translate(320,214.5)" d="M22.5,0A22.5,22.5 0 1,1 0,-22.5A22.5,22.5 0 0,1 22.5,0Z" style="opacity: 0.8; stroke-width: 2px; fill: rgb(46, 139, 87); fill-opacity: 1; stroke: rgb(255, 255, 255); stroke-opacity: 1;"/><path class="point" transform="translate(520,214.5)" d="M22.5,0A22.5,22.5 0 1,1 0,-22.5A22.5,22.5 0 0,1 22.5,0Z" style="opacity: 0.8; stroke-width: 2px; fill: rgb(46, 139, 87); fill-opacity: 1; stroke: rgb(255, 255, 255); stroke-opacity: 1;"/><path class="point" transform="translate(720,214.5)" d="M22.5,0A22.5,22.5 0 1,1 0,-22.5A22.5,22.5 0 0,1 22.5,0Z" style="opacity: 0.8; stroke-width: 2px; fill: rgb(46, 139, 87); fill-opacity: 1; stroke: rgb(255, 255, 255); stroke-opacity: 1;"/><path class="point" transform="translate(320,357.5)" d="M17.5,0A17.5,17.5 0 1,1 0,-17.5A17.5,17.5 0 0,1 17.5,0Z" style="opacity: 0.8; stroke-width: 2px; fill: rgb(210, 186, 76); fill-opacity: 1; stroke: rgb(255, 255, 255); stroke-opacity: 1;"/><path class="point" transform="translate(520,357.5)" d="M17.5,0A17.5,17.5 0 1,1 0,-17.5A17.5,17.5 0 0,1 17.5,0Z" style="opacity: 0.8; stroke-width: 2px; fill: rgb(210, 186, 76); fill-opacity: 1; stroke: rgb(255, 255, 255); stroke-opacity: 1;"/><path class="point" transform="translate(720,357.5)" d="M17.5,0A17.5,17.5 0 1,1 0,-17.5A17.5,17.5 0 0,1 17.5,0Z" style="opacity: 0.8; stroke-width: 2px; fill: rgb(210, 186, 76); fill-opacity: 1; stroke: rgb(255, 255, 255); stroke-opacity: 1;"/><path class="point" transform="translate(320,500.5)" d="M22.5,0A22.5,22.5 0 1,1 0,-22.5A22.5,22.5 0 0,1 22.5,0Z" style="opacity: 0.8; stroke-width: 2px; fill: rgb(219, 69, 69); fill-opacity: 1; stroke: rgb(255, 255, 255); stroke-opacity: 1;"/><path class="point" transform="translate(520,500.5)" d="M17.5,0A17.5,17.5 0 1,1 0,-17.5A17.5,17.5 0 0,1 17.5,0Z" style="opacity: 0.8; stroke-width: 2px; fill: rgb(219, 69, 69); fill-opacity: 1; stroke: rgb(255, 255, 255); stroke-opacity: 1;"/><path class="point" transform="translate(720,500.5)" d="M22.5,0A22.5,22.5 0 1,1 0,-22.5A22.5,22.5 0 0,1 22.5,0Z" style="opacity: 0.8; stroke-width: 2px; fill: rgb(219, 69, 69); fill-opacity: 1; stroke: rgb(255, 255, 255); stroke-opacity: 1;"/></g><g class="text"><g class="textpoint" transform="translate(0,2.25)"><text x="253.33" y="71.5" text-anchor="middle" style="font-family: 'FK Grotesk Neue'; font-size: 9px; fill: rgb(255, 255, 255); fill-opacity: 1; white-space: pre;">Streamlit Dashboard</text></g><g class="textpoint" transform="translate(0,2.25)"><text x="386.67" y="71.5" text-anchor="middle" style="font-family: 'FK Grotesk Neue'; font-size: 9px; fill: rgb(255, 255, 255); fill-opacity: 1; white-space: pre;">Password Breach Check</text></g><g class="textpoint" transform="translate(0,2.25)"><text x="520" y="71.5" text-anchor="middle" style="font-family: 'FK Grotesk Neue'; font-size: 9px; fill: rgb(255, 255, 255); fill-opacity: 1; white-space: pre;">Strength Analysis</text></g><g class="textpoint" transform="translate(0,2.25)"><text x="653.33" y="71.5" text-anchor="middle" style="font-family: 'FK Grotesk Neue'; font-size: 9px; fill: rgb(255, 255, 255); fill-opacity: 1; white-space: pre;">Hash Cracking</text></g><g class="textpoint" transform="translate(0,2.25)"><text x="786.67" y="71.5" text-anchor="middle" style="font-family: 'FK Grotesk Neue'; font-size: 9px; fill: rgb(255, 255, 255); fill-opacity: 1; white-space: pre;">Visualization</text></g><g class="textpoint" transform="translate(0,2.25)"><text x="320" y="214.5" text-anchor="middle" style="font-family: 'FK Grotesk Neue'; font-size: 9px; fill: rgb(255, 255, 255); fill-opacity: 1; white-space: pre;">password_analyzer.py</text></g><g class="textpoint" transform="translate(0,2.25)"><text x="520" y="214.5" text-anchor="middle" style="font-family: 'FK Grotesk Neue'; font-size: 9px; fill: rgb(255, 255, 255); fill-opacity: 1; white-space: pre;">hash_cracker.py</text></g><g class="textpoint" transform="translate(0,2.25)"><text x="720" y="214.5" text-anchor="middle" style="font-family: 'FK Grotesk Neue'; font-size: 9px; fill: rgb(255, 255, 255); fill-opacity: 1; white-space: pre;">visualization.py</text></g><g class="textpoint" transform="translate(0,2.25)"><text x="320" y="357.5" text-anchor="middle" style="font-family: 'FK Grotesk Neue'; font-size: 9px; fill: rgb(255, 255, 255); fill-opacity: 1; white-space: pre;">sample_passwords.txt</text></g><g class="textpoint" transform="translate(0,2.25)"><text x="520" y="357.5" text-anchor="middle" style="font-family: 'FK Grotesk Neue'; font-size: 9px; fill: rgb(255, 255, 255); fill-opacity: 1; white-space: pre;">leaked_hashes.txt</text></g><g class="textpoint" transform="translate(0,2.25)"><text x="720" y="357.5" text-anchor="middle" style="font-family: 'FK Grotesk Neue'; font-size: 9px; fill: rgb(255, 255, 255); fill-opacity: 1; white-space: pre;">common_passwords.txt</text></g><g class="textpoint" transform="translate(0,2.25)"><text x="320" y="500.5" text-anchor="middle" style="font-family: 'FK Grotesk Neue'; font-size: 9px; fill: rgb(255, 255, 255); fill-opacity: 1; white-space: pre;">HaveIBeenPwned API</text></g><g class="textpoint" transform="translate(0,2.25)"><text x="520" y="500.5" text-anchor="middle" style="font-family: 'FK Grotesk Neue'; font-size: 9px; fill: rgb(255, 255, 255); fill-opacity: 1; white-space: pre;">Matplotlib/Seaborn/Plotly</text></g><g class="textpoint" transform="translate(0,2.25)"><text x="720" y="500.5" text-anchor="middle" style="font-family: 'FK Grotesk Neue'; font-size: 9px; fill: rgb(255, 255, 255); fill-opacity: 1; white-space: pre;">hashcat integration</text></g></g></g><g class="trace scatter trace5cd8d1" style="stroke-miterlimit: 2; opacity: 1;"><g class="fills"/><g class="errorbars"/><g class="lines"><path class="js-line" d="M253.33,71.5L320,214.5" style="vector-effect: none; fill: none; stroke: rgb(93, 135, 143); stroke-opacity: 1; stroke-width: 2px; opacity: 1;"/></g><g class="points"/><g class="text"/></g><g class="trace scatter trace54db50" style="stroke-miterlimit: 2; opacity: 1;"><g class="fills"/><g class="errorbars"/><g class="lines"><path class="js-line" d="M386.67,71.5L320,214.5" style="vector-effect: none; fill: none; stroke: rgb(93, 135, 143); stroke-opacity: 1; stroke-width: 2px; opacity: 1;"/></g><g class="points"/><g class="text"/></g><g class="trace scatter tracea5b2a4" style="stroke-miterlimit: 2; opacity: 1;"><g class="fills"/><g class="errorbars"/><g class="lines"><path class="js-line" d="M520,71.5L320,214.5" style="vector-effect: none; fill: none; stroke: rgb(93, 135, 143); stroke-opacity: 1; stroke-width: 2px; opacity: 1;"/></g><g class="points"/><g class="text"/></g><g class="trace scatter trace88cd51" style="stroke-miterlimit: 2; opacity: 1;"><g class="fills"/><g class="errorbars"/><g class="lines"><path class="js-line" d="M653.33,71.5L520,214.5" style="vector-effect: none; fill: none; stroke: rgb(93, 135, 143); stroke-opacity: 1; stroke-width: 2px; opacity: 1;"/></g><g class="points"/><g class="text"/></g><g class="trace scatter trace93d689" style="stroke-miterlimit: 2; opacity: 1;"><g class="fills"/><g class="errorbars"/><g class="lines"><path class="js-line" d="M786.67,71.5L720,214.5" style="vector-effect: none; fill: none; stroke: rgb(93, 135, 143); stroke-opacity: 1; stroke-width: 2px; opacity: 1;"/></g><g class="points"/><g class="text"/></g><g class="trace scatter tracea1f832" style="stroke-miterlimit: 2; opacity: 1;"><g class="fills"/><g class="errorbars"/><g class="lines"><path class="js-line" d="M320,214.5L320,357.5" style="vector-effect: none; fill: none; stroke: rgb(93, 135, 143); stroke-opacity: 1; stroke-width: 2px; opacity: 1;"/></g><g class="points"/><g class="text"/></g><g class="trace scatter trace20a5bb" style="stroke-miterlimit: 2; opacity: 1;"><g class="fills"/><g class="errorbars"/><g class="lines"><path class="js-line" d="M320,214.5L720,357.5" style="vector-effect: none; fill: none; stroke: rgb(93, 135, 143); stroke-opacity: 1; stroke-width: 2px; opacity: 1;"/></g><g class="points"/><g class="text"/></g><g class="trace scatter tracebfef54" style="stroke-miterlimit: 2; opacity: 1;"><g class="fills"/><g class="errorbars"/><g class="lines"><path class="js-line" d="M520,214.5L520,357.5" style="vector-effect: none; fill: none; stroke: rgb(93, 135, 143); stroke-opacity: 1; stroke-width: 2px; opacity: 1;"/></g><g class="points"/><g class="text"/></g><g class="trace scatter traceb8e8ec" style="stroke-miterlimit: 2; opacity: 1;"><g class="fills"/><g class="errorbars"/><g class="lines"><path class="js-line" d="M320,214.5L320,500.5" style="vector-effect: none; fill: none; stroke: rgb(93, 135, 143); stroke-opacity: 1; stroke-width: 2px; opacity: 1;"/></g><g class="points"/><g class="text"/></g><g class="trace scatter trace7968b0" style="stroke-miterlimit: 2; opacity: 1;"><g class="fills"/><g class="errorbars"/><g class="lines"><path class="js-line" d="M720,214.5L520,500.5" style="vector-effect: none; fill: none; stroke: rgb(93, 135, 143); stroke-opacity: 1; stroke-width: 2px; opacity: 1;"/></g><g class="points"/><g class="text"/></g><g class="trace scatter traceb08435" style="stroke-miterlimit: 2; opacity: 1;"><g class="fills"/><g class="errorbars"/><g class="lines"><path class="js-line" d="M520,214.5L720,500.5" style="vector-effect: none; fill: none; stroke: rgb(93, 135, 143); stroke-opacity: 1; stroke-width: 2px; opacity: 1;"/></g><g class="points"/><g class="text"/></g></g></g></g><path class="xlines-above crisp" d="" style="fill: none; stroke-width: 1px; stroke: rgb(0, 0, 0); stroke-opacity: 0;"/><path class="ylines-above crisp" d="" style="fill: none; stroke-width: 1px; stroke: rgb(0, 0, 0); stroke-opacity: 0;"/><g class="overlines-above"/><g class="xaxislayer-above"><path class="xtick ticks crisp" d="M0,721v5" transform="translate(200,0)" style="stroke: rgb(94, 82, 64); stroke-opacity: 0.2; stroke-width: 1px;"/><path class="xtick ticks crisp" d="M0,721v5" transform="translate(360,0)" style="stroke: rgb(94, 82, 64); stroke-opacity: 0.2; stroke-width: 1px;"/><path class="xtick ticks crisp" d="M0,721v5" transform="translate(520,0)" style="stroke: rgb(94, 82, 64); stroke-opacity: 0.2; stroke-width: 1px;"/><path class="xtick ticks crisp" d="M0,721v5" transform="translate(680,0)" style="stroke: rgb(94, 82, 64); stroke-opacity: 0.2; stroke-width: 1px;"/><path class="xtick ticks crisp" d="M0,721v5" transform="translate(840,0)" style="stroke: rgb(94, 82, 64); stroke-opacity: 0.2; stroke-width: 1px;"/><path class="xtick ticks crisp" d="M0,721v5" transform="translate(1000,0)" style="stroke: rgb(94, 82, 64); stroke-opacity: 0.2; stroke-width: 1px;"/></g><g class="yaxislayer-above"><path class="ytick ticks crisp" d="M79,0h-5" transform="translate(0,720)" style="stroke: rgb(94, 82, 64); stroke-opacity: 0.2; stroke-width: 1px;"/><path class="ytick ticks crisp" d="M79,0h-5" transform="translate(0,648.5)" style="stroke: rgb(94, 82, 64); stroke-opacity: 0.2; stroke-width: 1px;"/><path class="ytick ticks crisp" d="M79,0h-5" transform="translate(0,577)" style="stroke: rgb(94, 82, 64); stroke-opacity: 0.2; stroke-width: 1px;"/><path class="ytick ticks crisp" d="M79,0h-5" transform="translate(0,505.5)" style="stroke: rgb(94, 82, 64); stroke-opacity: 0.2; stroke-width: 1px;"/><path class="ytick ticks crisp" d="M79,0h-5" transform="translate(0,434)" style="stroke: rgb(94, 82, 64); stroke-opacity: 0.2; stroke-width: 1px;"/><path class="ytick ticks crisp" d="M79,0h-5" transform="translate(0,362.5)" style="stroke: rgb(94, 82, 64); stroke-opacity: 0.2; stroke-width: 1px;"/><path class="ytick ticks crisp" d="M79,0h-5" transform="translate(0,291)" style="stroke: rgb(94, 82, 64); stroke-opacity: 0.2; stroke-width: 1px;"/><path class="ytick ticks crisp" d="M79,0h-5" transform="translate(0,219.5)" style="stroke: rgb(94, 82, 64); stroke-opacity: 0.2; stroke-width: 1px;"/><path class="ytick ticks crisp" d="M79,0h-5" transform="translate(0,148)" style="stroke: rgb(94, 82, 64); stroke-opacity: 0.2; stroke-width: 1px;"/></g><g class="overaxes-above"/></g></g><g class="polarlayer"/><g class="smithlayer"/><g class="ternarylayer"/><g class="geolayer"/><g class="funnelarealayer"/><g class="pielayer"/><g class="iciclelayer"/><g class="treemaplayer"/><g class="sunburstlayer"/><g class="glimages"/><defs id="topdefs-587459"><g class="clips"/></defs><g class="layer-above"><g class="imagelayer"/><g class="shapelayer"><g class="shape-group" data-index="0" clip-path="url(#clip587459xy)"><path data-index="0" fill-rule="evenodd" d="M120,276.7H1080V162.3H120Z" style="opacity: 0.1; stroke: rgb(0, 0, 0); stroke-opacity: 0; fill: rgb(31, 184, 205); fill-opacity: 1; stroke-width: 0px;"/></g><g class="shape-group" data-index="1" clip-path="url(#clip587459xy)"><path data-index="1" fill-rule="evenodd" d="M120,419.7H1080V305.3H120Z" style="opacity: 0.1; stroke: rgb(0, 0, 0); stroke-opacity: 0; fill: rgb(46, 139, 87); fill-opacity: 1; stroke-width: 0px;"/></g><g class="shape-group" data-index="2" clip-path="url(#clip587459xy)"><path data-index="2" fill-rule="evenodd" d="M120,562.7H1080V448.3H120Z" style="opacity: 0.1; stroke: rgb(0, 0, 0); stroke-opacity: 0; fill: rgb(210, 186, 76); fill-opacity: 1; stroke-width: 0px;"/></g><g class="shape-group" data-index="3" clip-path="url(#clip587459xy)"><path data-index="3" fill-rule="evenodd" d="M120,705.7H1080V591.3H120Z" style="opacity: 0.1; stroke: rgb(0, 0, 0); stroke-opacity: 0; fill: rgb(219, 69, 69); fill-opacity: 1; stroke-width: 0px;"/></g></g></g><g class="infolayer"><g class="g-gtitle"><text class="gtitle" x="600" y="68" text-anchor="middle" dy="-0.3em" style="opacity: 1; font-family: 'FK Grotesk Neue'; font-size: 28px; fill: rgb(19, 52, 59); fill-opacity: 1; font-weight: 1000; white-space: pre;">Data Breach Analyzer Architecture</text></g><g class="g-xtitle"/><g class="g-ytitle"/><g class="annotation" data-index="0" style="opacity: 1;"><g class="annotation-text-g" transform="rotate(0,400.2083333333333,363.2)"><g class="cursor-pointer" transform="translate(398,361)"><rect class="bg" x="0.5" y="0.5" width="3" height="3" style="stroke-width: 1px; stroke: rgb(0, 0, 0); stroke-opacity: 0; fill: rgb(0, 0, 0); fill-opacity: 0;"/><text class="annotation-text" text-anchor="middle" x="2" y="2" style="font-family: 'FK Grotesk Neue'; font-size: 16px; fill: rgb(19, 52, 59); fill-opacity: 1; white-space: pre;"></text></g></g></g><g class="annotation" data-index="1" style="opacity: 1;"><g class="annotation-text-g" transform="rotate(0,400.2916666666667,363.2)"><g class="cursor-pointer" transform="translate(398,361)"><rect class="bg" x="0.5" y="0.5" width="3" height="3" style="stroke-width: 1px; stroke: rgb(0, 0, 0); stroke-opacity: 0; fill: rgb(0, 0, 0); fill-opacity: 0;"/><text class="annotation-text" text-anchor="middle" x="2" y="2" style="font-family: 'FK Grotesk Neue'; font-size: 16px; fill: rgb(19, 52, 59); fill-opacity: 1; white-space: pre;"></text></g></g></g><g class="annotation" data-index="2" style="opacity: 1;"><g class="annotation-text-g" transform="rotate(0,400.375,363.2)"><g class="cursor-pointer" transform="translate(398,361)"><rect class="bg" x="0.5" y="0.5" width="3" height="3" style="stroke-width: 1px; stroke: rgb(0, 0, 0); stroke-opacity: 0; fill: rgb(0, 0, 0); fill-opacity: 0;"/><text class="annotation-text" text-anchor="middle" x="2" y="2" style="font-family: 'FK Grotesk Neue'; font-size: 16px; fill: rgb(19, 52, 59); fill-opacity: 1; white-space: pre;"></text></g></g></g><g class="annotation" data-index="3" style="opacity: 1;"><g class="annotation-text-g" transform="rotate(0,600.5833333333334,363.2)"><g class="cursor-pointer" transform="translate(599,361)"><rect class="bg" x="0.5" y="0.5" width="3" height="3" style="stroke-width: 1px; stroke: rgb(0, 0, 0); stroke-opacity: 0; fill: rgb(0, 0, 0); fill-opacity: 0;"/><text class="annotation-text" text-anchor="middle" x="2" y="2" style="font-family: 'FK Grotesk Neue'; font-size: 16px; fill: rgb(19, 52, 59); fill-opacity: 1; white-space: pre;"></text></g></g></g><g class="annotation" data-index="4" style="opacity: 1;"><g class="annotation-text-g" transform="rotate(0,800.7916666666666,363.2)"><g class="cursor-pointer" transform="translate(799,361)"><rect class="bg" x="0.5" y="0.5" width="3" height="3" style="stroke-width: 1px; stroke: rgb(0, 0, 0); stroke-opacity: 0; fill: rgb(0, 0, 0); fill-opacity: 0;"/><text class="annotation-text" text-anchor="middle" x="2" y="2" style="font-family: 'FK Grotesk Neue'; font-size: 16px; fill: rgb(19, 52, 59); fill-opacity: 1; white-space: pre;"></text></g></g></g><g class="annotation" data-index="5" style="opacity: 1;"><g class="annotation-text-g" transform="rotate(0,400.25,506)"><g class="cursor-pointer" transform="translate(398,504)"><rect class="bg" x="0.5" y="0.5" width="3" height="3" style="stroke-width: 1px; stroke: rgb(0, 0, 0); stroke-opacity: 0; fill: rgb(0, 0, 0); fill-opacity: 0;"/><text class="annotation-text" text-anchor="middle" x="2" y="2" style="font-family: 'FK Grotesk Neue'; font-size: 16px; fill: rgb(19, 52, 59); fill-opacity: 1; white-space: pre;"></text></g></g></g><g class="annotation" data-index="6" style="opacity: 1;"><g class="annotation-text-g" transform="rotate(0,800.5,506)"><g class="cursor-pointer" transform="translate(799,504)"><rect class="bg" x="0.5" y="0.5" width="3" height="3" style="stroke-width: 1px; stroke: rgb(0, 0, 0); stroke-opacity: 0; fill: rgb(0, 0, 0); fill-opacity: 0;"/><text class="annotation-text" text-anchor="middle" x="2" y="2" style="font-family: 'FK Grotesk Neue'; font-size: 16px; fill: rgb(19, 52, 59); fill-opacity: 1; white-space: pre;"></text></g></g><g class="annotation-arrow-g" style="opacity: 1;"><path d="M800.5,506L800,505.5" style="stroke-width: 2px; stroke: rgb(93, 135, 143); stroke-opacity: 1; stroke-dasharray: 0px, 100px;"/></g></g><g class="annotation" data-index="7" style="opacity: 1;"><g class="annotation-text-g" transform="rotate(0,600.5,506)"><g class="cursor-pointer" transform="translate(599,504)"><rect class="bg" x="0.5" y="0.5" width="3" height="3" style="stroke-width: 1px; stroke: rgb(0, 0, 0); stroke-opacity: 0; fill: rgb(0, 0, 0); fill-opacity: 0;"/><text class="annotation-text" text-anchor="middle" x="2" y="2" style="font-family: 'FK Grotesk Neue'; font-size: 16px; fill: rgb(19, 52, 59); fill-opacity: 1; white-space: pre;"></text></g></g><g class="annotation-arrow-g" style="opacity: 1;"><path d="M600.5,506L600,505.5" style="stroke-width: 2px; stroke: rgb(93, 135, 143); stroke-opacity: 1; stroke-dasharray: 0px, 100px;"/></g></g><g class="annotation" data-index="8" style="opacity: 1;"><g class="annotation-text-g" transform="rotate(0,400.25,648.9)"><g class="cursor-pointer" transform="translate(398,647)"><rect class="bg" x="0.5" y="0.5" width="3" height="3" style="stroke-width: 1px; stroke: rgb(0, 0, 0); stroke-opacity: 0; fill: rgb(0, 0, 0); fill-opacity: 0;"/><text class="annotation-text" text-anchor="middle" x="2" y="2" style="font-family: 'FK Grotesk Neue'; font-size: 16px; fill: rgb(19, 52, 59); fill-opacity: 1; white-space: pre;"></text></g></g></g><g class="annotation" data-index="9" style="opacity: 1;"><g class="annotation-text-g" transform="rotate(0,600.625,648.9)"><g class="cursor-pointer" transform="translate(599,647)"><rect class="bg" x="0.5" y="0.5" width="3" height="3" style="stroke-width: 1px; stroke: rgb(0, 0, 0); stroke-opacity: 0; fill: rgb(0, 0, 0); fill-opacity: 0;"/><text class="annotation-text" text-anchor="middle" x="2" y="2" style="font-family: 'FK Grotesk Neue'; font-size: 16px; fill: rgb(19, 52, 59); fill-opacity: 1; white-space: pre;"></text></g></g></g><g class="annotation" data-index="10" style="opacity: 1;"><g class="annotation-text-g" transform="rotate(0,800.625,648.9)"><g class="cursor-pointer" transform="translate(799,647)"><rect class="bg" x="0.5" y="0.5" width="3" height="3" style="stroke-width: 1px; stroke: rgb(0, 0, 0); stroke-opacity: 0; fill: rgb(0, 0, 0); fill-opacity: 0;"/><text class="annotation-text" text-anchor="middle" x="2" y="2" style="font-family: 'FK Grotesk Neue'; font-size: 16px; fill: rgb(19, 52, 59); fill-opacity: 1; white-space: pre;"></text></g></g></g><g class="annotation" data-index="11" style="opacity: 1;"><g class="annotation-text-g" transform="rotate(-90,160,219.5)"><g class="cursor-pointer" transform="translate(132,210)"><rect class="bg" x="0.5" y="0.5" width="55" height="19" style="stroke-width: 1px; stroke: rgb(0, 0, 0); stroke-opacity: 0; fill: rgb(0, 0, 0); fill-opacity: 0;"/><text class="annotation-text" text-anchor="middle" x="27.453125" y="14" style="font-family: 'FK Grotesk Neue'; font-size: 12px; fill: rgb(31, 184, 205); fill-opacity: 1; white-space: pre;"><tspan style="font-weight:bold">Frontend</tspan></text></g></g></g><g class="annotation" data-index="12" style="opacity: 1;"><g class="annotation-text-g" transform="rotate(-90,160,362.5)"><g class="cursor-pointer" transform="translate(133,353)"><rect class="bg" x="0.5" y="0.5" width="53" height="19" style="stroke-width: 1px; stroke: rgb(0, 0, 0); stroke-opacity: 0; fill: rgb(0, 0, 0); fill-opacity: 0;"/><text class="annotation-text" text-anchor="middle" x="26.546875" y="14" style="font-family: 'FK Grotesk Neue'; font-size: 12px; fill: rgb(46, 139, 87); fill-opacity: 1; white-space: pre;"><tspan style="font-weight:bold">Backend</tspan></text></g></g></g><g class="annotation" data-index="13" style="opacity: 1;"><g class="annotation-text-g" transform="rotate(-90,160,505.5)"><g class="cursor-pointer" transform="translate(144,496)"><rect class="bg" x="0.5" y="0.5" width="31" height="19" style="stroke-width: 1px; stroke: rgb(0, 0, 0); stroke-opacity: 0; fill: rgb(0, 0, 0); fill-opacity: 0;"/><text class="annotation-text" text-anchor="middle" x="15.25" y="14" style="font-family: 'FK Grotesk Neue'; font-size: 12px; fill: rgb(210, 186, 76); fill-opacity: 1; white-space: pre;"><tspan style="font-weight:bold">Data</tspan></text></g></g></g><g class="annotation" data-index="14" style="opacity: 1;"><g class="annotation-text-g" transform="rotate(-90,160,648.5)"><g class="cursor-pointer" transform="translate(117,639)"><rect class="bg" x="0.5" y="0.5" width="85" height="19" style="stroke-width: 1px; stroke: rgb(0, 0, 0); stroke-opacity: 0; fill: rgb(0, 0, 0); fill-opacity: 0;"/><text class="annotation-text" text-anchor="middle" x="42.828125" y="14" style="font-family: 'FK Grotesk Neue'; font-size: 12px; fill: rgb(219, 69, 69); fill-opacity: 1; white-space: pre;"><tspan style="font-weight:bold">External/Tools</tspan></text></g></g></g></g></svg>